<svg width="16" height="16" viewBox="0 0 16 16" fill="none" xmlns="http://www.w3.org/2000/svg">
<path d="M4.8 13.3334H2.13333V5.33343H4.8V13.3334ZM3.4672 4.26676C2.7296 4.26676 2.13333 3.6689 2.13333 2.9329C2.13333 2.1969 2.73066 1.6001 3.4672 1.6001C4.20213 1.6001 4.8 2.19796 4.8 2.9329C4.8 3.6689 4.20213 4.26676 3.4672 4.26676ZM14.4 13.3334H11.8363V9.4401C11.8363 8.51156 11.8187 7.31743 10.5035 7.31743C9.16853 7.31743 8.9632 8.32863 8.9632 9.3729V13.3334H6.4V5.32756H8.8608V6.42143H8.89546C9.23786 5.7921 10.0747 5.12863 11.3227 5.12863C13.92 5.12863 14.4 6.78676 14.4 8.9425C14.4 8.9425 14.4 13.3334 14.4 13.3334Z" fill="#0082C6"/>
</svg>
