<svg width="16" height="16" viewBox="0 0 16 16" fill="none" xmlns="http://www.w3.org/2000/svg">
<path d="M8.00002 7.405L14.39 3.3C14.1331 3.10731 13.8211 3.00215 13.5 3H2.50002C2.17888 3.00215 1.86692 3.10731 1.61002 3.3L8.00002 7.405Z" fill="white"/>
<path d="M8.27 8.41988L8.185 8.45988H8.145C8.09896 8.48045 8.05007 8.49394 8 8.49988C7.9585 8.50511 7.9165 8.50511 7.875 8.49988H7.835L7.75 8.45988L1.05 4.12988C1.01799 4.25065 1.00119 4.37495 1 4.49988V11.4999C1 11.8977 1.15804 12.2792 1.43934 12.5605C1.72064 12.8418 2.10218 12.9999 2.5 12.9999H13.5C13.8978 12.9999 14.2794 12.8418 14.5607 12.5605C14.842 12.2792 15 11.8977 15 11.4999V4.49988C14.9988 4.37495 14.982 4.25065 14.95 4.12988L8.27 8.41988Z" fill="white"/>
</svg>
