<svg width="32" height="32" viewBox="0 0 32 32" fill="none" xmlns="http://www.w3.org/2000/svg">
<circle cx="16" cy="16" r="15.75" stroke="white" stroke-width="0.5"/>
<g clip-path="url(#clip0)">
<path d="M8.0029 12.5375C8.0029 11.6557 8.18477 10.7801 8.55059 9.91302C8.91641 9.04589 9.4393 8.23965 10.1213 7.4985C10.8034 6.75735 11.6983 6.15477 12.8081 5.69286C13.918 5.23095 15.1477 5 16.4973 5C18.6881 5 20.4862 5.68656 21.8916 7.05759C23.297 8.42861 23.9997 10.0453 23.9997 11.9076C23.9997 14.3011 23.4045 16.2789 22.2119 17.8389C21.0194 19.3989 19.4797 20.18 17.5927 20.18C16.9727 20.18 16.3899 20.033 15.8463 19.7391C15.3027 19.4451 14.9204 19.0882 14.6992 18.6683L13.8725 21.9856C13.8043 22.2522 13.7134 22.521 13.6038 22.7939C13.4943 23.0669 13.3724 23.3293 13.2422 23.5813C13.112 23.8332 12.9797 24.0705 12.8495 24.2951C12.7193 24.5198 12.587 24.7298 12.4568 24.925C12.3266 25.1203 12.2129 25.2861 12.1158 25.4184C12.0186 25.5507 11.9298 25.6662 11.8471 25.7648L11.7231 25.9328C11.6818 25.9895 11.6259 26.0105 11.5577 25.9958C11.4895 25.9811 11.4482 25.9391 11.4337 25.8698C11.4337 25.8551 11.4234 25.7585 11.4027 25.5759C11.3821 25.3932 11.3614 25.2022 11.3407 24.9985C11.3201 24.7948 11.2994 24.5324 11.2787 24.2112C11.2581 23.8899 11.2519 23.5771 11.2581 23.2768C11.2643 22.9766 11.2849 22.6428 11.3201 22.2795C11.3552 21.9163 11.4069 21.5804 11.4751 21.2717C11.6259 20.6146 12.1364 18.4226 13.0045 14.7001C12.8949 14.4754 12.804 14.2067 12.7358 13.8917C12.6676 13.5768 12.6325 13.3206 12.6325 13.1254L12.6118 12.8104C12.6118 11.9139 12.835 11.1686 13.2835 10.5744C13.732 9.9802 14.2714 9.68206 14.9059 9.68206C15.4164 9.68206 15.8112 9.85423 16.0943 10.1965C16.3775 10.5387 16.518 10.9691 16.518 11.4877C16.518 11.8089 16.4601 12.2058 16.3423 12.674C16.2245 13.1422 16.0695 13.6818 15.8773 14.2906C15.6851 14.8995 15.5466 15.3929 15.4639 15.7708C15.3255 16.4007 15.4474 16.9466 15.8256 17.4085C16.2038 17.8704 16.7102 18.1014 17.3447 18.1014C18.4339 18.1014 19.3329 17.4757 20.0418 16.2223C20.7507 14.9688 21.1062 13.455 21.1062 11.6767C21.1062 10.3182 20.6722 9.20966 19.8042 8.34883C18.9361 7.488 17.7229 7.05759 16.1666 7.05759C14.4306 7.05759 13.021 7.62448 11.9401 8.75825C10.8592 9.89202 10.3177 11.2504 10.3177 12.8314C10.3177 13.7699 10.5802 14.5594 11.1031 15.204C11.2829 15.4139 11.3366 15.6386 11.2684 15.8758C11.2415 15.9451 11.2002 16.1068 11.1444 16.3587C11.0886 16.6107 11.0473 16.7723 11.0204 16.8416C10.9935 16.9949 10.9232 17.0978 10.8137 17.1461C10.7042 17.1944 10.5802 17.1923 10.4417 17.1356C9.62945 16.7996 9.01975 16.2223 8.6126 15.4034C8.20544 14.5846 8.0029 13.6293 8.0029 12.5375Z" fill="white"/>
</g>
<defs>
<clipPath id="clip0">
<rect width="16" height="21" fill="white" transform="translate(8 5)"/>
</clipPath>
</defs>
</svg>
