<svg width="32" height="32" viewBox="0 0 32 32" fill="none" xmlns="http://www.w3.org/2000/svg">
<circle cx="16" cy="16" r="15.75" stroke="white" stroke-width="0.5"/>
<path d="M22.2006 9.91549C22.0448 9.92233 21.8931 9.96571 21.7562 10.0205C21.6208 10.0749 20.8412 10.4077 19.69 10.8999C18.5387 11.3921 17.0422 12.033 15.5587 12.6686C12.5918 13.9398 9.67624 15.1905 9.67624 15.1905L9.69749 15.1824C9.69749 15.1824 9.52153 15.2412 9.34312 15.3655C9.25391 15.4276 9.15795 15.5079 9.07937 15.6249C9.00079 15.7418 8.94334 15.9076 8.96499 16.083C9.04103 16.6989 9.67937 16.8736 9.67937 16.8736L9.68187 16.8749L12.5306 17.8499C12.6032 18.0922 13.3947 20.7336 13.5687 21.293C13.6649 21.6023 13.7549 21.7807 13.8487 21.9024C13.8957 21.9633 13.9449 22.0104 13.9994 22.0449C14.021 22.0586 14.0437 22.0688 14.0662 22.078C14.0667 22.0782 14.067 22.0778 14.0675 22.078C14.0703 22.0792 14.0729 22.0793 14.0756 22.0805L14.0681 22.0786C14.0733 22.0807 14.0785 22.0843 14.0837 22.0861C14.0939 22.0897 14.1001 22.0896 14.1131 22.0924C14.4394 22.2063 14.7094 21.9949 14.7094 21.9949L14.7206 21.9861L16.4706 20.363L19.3106 22.5774L19.3462 22.5936C19.8433 22.8143 20.2929 22.6912 20.5419 22.4886C20.7908 22.286 20.8887 22.0249 20.8887 22.0249L20.8994 21.9974L22.9862 11.1205C23.0396 10.8772 23.0472 10.6668 22.9969 10.4767C22.9465 10.2867 22.8241 10.1214 22.6706 10.0299C22.5171 9.93829 22.3565 9.90865 22.2006 9.91549ZM22.2175 10.5661C22.2808 10.5632 22.3277 10.5704 22.3425 10.5792C22.3573 10.5881 22.3639 10.5869 22.3781 10.6405C22.3923 10.6941 22.4 10.807 22.3612 10.9836L22.36 10.9874L20.285 21.8011C20.2801 21.812 20.2368 21.912 20.1381 21.9924C20.0374 22.0743 19.9254 22.1383 19.6281 22.0136L16.5225 19.5917L16.435 19.523L16.4331 19.5249L15.5044 18.828L20.7237 12.6874C20.7638 12.6403 20.7895 12.5826 20.7975 12.5213C20.8055 12.46 20.7956 12.3977 20.769 12.3419C20.7423 12.2861 20.7001 12.2392 20.6474 12.2069C20.5946 12.1746 20.5337 12.1583 20.4719 12.1599C20.4115 12.1614 20.3527 12.1801 20.3025 12.2136L12.75 17.2486L9.89687 16.2717C9.89687 16.2717 9.61355 16.1141 9.59999 16.0042C9.59924 15.9982 9.5959 16.0037 9.61062 15.9817C9.62534 15.9598 9.66235 15.9228 9.70874 15.8905C9.80154 15.8258 9.90749 15.7867 9.90749 15.7867L9.91812 15.783L9.92874 15.7786C9.92874 15.7786 12.8444 14.5278 15.8112 13.2567C17.2946 12.6212 18.7909 11.9807 19.9419 11.4886C21.0925 10.9967 21.924 10.6425 21.9944 10.6142C22.0745 10.5821 22.1542 10.569 22.2175 10.5661ZM18.7562 14.0136L14.7981 18.6705L14.7962 18.6724C14.7901 18.6798 14.7842 18.6875 14.7787 18.6955C14.7725 18.7042 14.7666 18.7131 14.7612 18.7224C14.739 18.7601 14.7248 18.802 14.7194 18.8455C14.7194 18.8463 14.7194 18.8472 14.7194 18.848L14.2037 21.1667C14.1952 21.1417 14.1892 21.1325 14.18 21.103V21.1024C14.0162 20.5761 13.2695 18.085 13.1662 17.7405L18.7562 14.0136ZM15.245 19.4336L15.9562 19.9674L14.9112 20.9361L15.245 19.4336Z" fill="white"/>
</svg>
