<svg width="16" height="16" viewBox="0 0 16 16" fill="none" xmlns="http://www.w3.org/2000/svg">
<path d="M14.6667 3.86656C14.1656 4.08396 13.6356 4.22767 13.0933 4.29323C13.6654 3.95144 14.0942 3.41375 14.3 2.7799C13.7624 3.09994 13.1738 3.32543 12.56 3.44656C12.1497 3.00161 11.6033 2.70543 11.0065 2.60446C10.4098 2.5035 9.79636 2.60347 9.26252 2.88869C8.72869 3.17391 8.30462 3.62825 8.05682 4.18045C7.80903 4.73266 7.75152 5.35149 7.89333 5.9399C6.80628 5.88491 5.74296 5.60186 4.77243 5.10914C3.80191 4.61641 2.94589 3.92502 2.25999 3.0799C2.01942 3.50001 1.89301 3.97578 1.89333 4.4599C1.89248 4.90948 2.00281 5.35231 2.2145 5.74894C2.42619 6.14557 2.73267 6.4837 3.10666 6.73323C2.67198 6.7214 2.24659 6.60476 1.86666 6.39323V6.42656C1.86992 7.05649 2.09066 7.66596 2.49154 8.15187C2.89242 8.63779 3.44883 8.97032 4.06666 9.09323C3.82883 9.16561 3.58191 9.20377 3.33333 9.20656C3.16126 9.20455 2.98961 9.18895 2.81999 9.1599C2.99593 9.70177 3.33641 10.1753 3.79404 10.5147C4.25168 10.854 4.80371 11.0423 5.37333 11.0532C4.41146 11.8101 3.22392 12.2231 1.99999 12.2266C1.77715 12.2273 1.55449 12.2139 1.33333 12.1866C2.58295 12.9934 4.0392 13.4217 5.52666 13.4199C6.55312 13.4306 7.57142 13.2366 8.52207 12.8493C9.47272 12.462 10.3367 11.8892 11.0635 11.1642C11.7903 10.4393 12.3653 9.57682 12.755 8.62717C13.1448 7.67751 13.3414 6.65971 13.3333 5.63323C13.3333 5.5199 13.3333 5.3999 13.3333 5.2799C13.8565 4.88977 14.3076 4.41151 14.6667 3.86656Z" fill="#0082C6"/>
</svg>
