<svg width="32" height="32" viewBox="0 0 32 32" fill="none" xmlns="http://www.w3.org/2000/svg">
<circle cx="16" cy="16" r="15.75" stroke="white" stroke-width="0.5"/>
<path d="M22.6667 11.8668C22.1656 12.0842 21.6356 12.2279 21.0933 12.2935C21.6654 11.9517 22.0942 11.414 22.3 10.7801C21.7624 11.1002 21.1738 11.3257 20.56 11.4468C20.1497 11.0019 19.6033 10.7057 19.0065 10.6047C18.4098 10.5037 17.7964 10.6037 17.2625 10.8889C16.7287 11.1742 16.3046 11.6285 16.0568 12.1807C15.809 12.7329 15.7515 13.3517 15.8933 13.9401C14.8063 13.8852 13.743 13.6021 12.7724 13.1094C11.8019 12.6167 10.9459 11.9253 10.26 11.0801C10.0194 11.5003 9.89301 11.976 9.89333 12.4601C9.89248 12.9097 10.0028 13.3526 10.2145 13.7492C10.4262 14.1458 10.7327 14.4839 11.1067 14.7335C10.672 14.7216 10.2466 14.605 9.86666 14.3935V14.4268C9.86992 15.0567 10.0907 15.6662 10.4915 16.1521C10.8924 16.638 11.4488 16.9706 12.0667 17.0935C11.8288 17.1659 11.5819 17.204 11.3333 17.2068C11.1613 17.2048 10.9896 17.1892 10.82 17.1601C10.9959 17.702 11.3364 18.1756 11.794 18.5149C12.2517 18.8543 12.8037 19.0425 13.3733 19.0535C12.4115 19.8103 11.2239 20.2234 9.99999 20.2268C9.77715 20.2275 9.55449 20.2142 9.33333 20.1868C10.5829 20.9936 12.0392 21.422 13.5267 21.4201C14.5531 21.4308 15.5714 21.2368 16.5221 20.8495C17.4727 20.4622 18.3367 19.8894 19.0635 19.1645C19.7903 18.4395 20.3653 17.5771 20.755 16.6274C21.1448 15.6778 21.3414 14.66 21.3333 13.6335C21.3333 13.5201 21.3333 13.4001 21.3333 13.2801C21.8565 12.89 22.3076 12.4118 22.6667 11.8668Z" fill="white"/>
</svg>
