<svg width="16" height="16" viewBox="0 0 16 16" fill="none" xmlns="http://www.w3.org/2000/svg">
<g clip-path="url(#clip0)">
<path fill-rule="evenodd" clip-rule="evenodd" d="M13.6692 2.32515C12.1653 0.826561 10.1651 0.000842305 8.0342 0C3.64347 0 0.0699538 3.55643 0.0681966 7.92786C0.0676109 9.32521 0.43444 10.6892 1.1315 11.8915L0.00140381 16L4.2243 14.8975C5.38778 15.5291 6.69778 15.862 8.03101 15.8625H8.03429C12.4246 15.8625 15.9984 12.3056 16.0002 7.93419C16.001 5.81573 15.1732 3.82374 13.6692 2.32515ZM8.03429 14.5235H8.03158C6.84354 14.523 5.67825 14.2054 4.66172 13.6049L4.41993 13.4621L1.91403 14.1164L2.58292 11.6847L2.42547 11.4354C1.7627 10.3861 1.41264 9.17346 1.41316 7.92836C1.41462 4.295 4.3848 1.33905 8.03691 1.33905C9.80535 1.33972 11.4678 2.02607 12.7178 3.27164C13.9679 4.51722 14.6559 6.17289 14.6552 7.93367C14.6537 11.5673 11.6836 14.5235 8.03429 14.5235ZM11.666 9.58811C11.467 9.48896 10.4884 9.00969 10.3059 8.94358C10.1235 8.87747 9.99082 8.84442 9.85811 9.04275C9.72543 9.24106 9.34398 9.68729 9.22784 9.81949C9.11176 9.95171 8.99566 9.96825 8.7966 9.86908C8.59757 9.76992 7.95624 9.56075 7.19596 8.88583C6.60428 8.36057 6.20478 7.71178 6.08868 7.51347C5.97258 7.31514 6.07634 7.20791 6.17598 7.10917C6.2655 7.0204 6.37501 6.87779 6.47454 6.76209C6.57404 6.64642 6.60721 6.56378 6.67355 6.43158C6.73991 6.29936 6.70674 6.18367 6.65698 6.08451C6.60721 5.98536 6.20917 5.01027 6.04328 4.61363C5.88173 4.22734 5.71762 4.2796 5.59545 4.27355C5.47948 4.26781 5.34665 4.26658 5.21398 4.26658C5.08128 4.26658 4.86565 4.31617 4.68319 4.51448C4.50075 4.71281 3.98659 5.19208 3.98659 6.16714C3.98659 7.14221 4.69979 8.08421 4.79932 8.21643C4.89882 8.34865 6.20283 10.3496 8.1995 11.2077C8.67438 11.4118 9.04514 11.5337 9.3342 11.6251C9.81103 11.7758 10.2449 11.7545 10.5879 11.7035C10.9703 11.6467 11.7655 11.2243 11.9314 10.7615C12.0973 10.2988 12.0973 9.90214 12.0475 9.81951C11.9978 9.73688 11.8651 9.68729 11.666 9.58811Z" fill="white"/>
</g>
<defs>
<clipPath id="clip0">
<rect width="16" height="16" fill="white"/>
</clipPath>
</defs>
</svg>
