<svg width="32" height="32" viewBox="0 0 32 32" fill="none" xmlns="http://www.w3.org/2000/svg">
<circle cx="16" cy="16" r="15.75" stroke="white" stroke-width="0.5"/>
<g clip-path="url(#clip0)">
<path d="M14.6265 20.9865C11.5794 20.9316 10.5386 20.8822 9.89892 20.7532C9.46612 20.6675 9.09002 20.4772 8.81425 20.2012C8.60111 19.9923 8.43161 19.6736 8.30011 19.2313C8.18731 18.8629 8.14337 18.5564 8.08074 17.8076C7.98486 16.1178 7.962 14.7363 8.08074 13.1926C8.1787 12.3401 8.22619 11.3281 8.87688 10.7377C9.18412 10.4614 9.54152 10.2836 9.94286 10.2101C10.5698 10.0936 13.2408 10.0015 16.0059 10.0015C18.7648 10.0015 21.4418 10.0936 22.0693 10.2101C22.5707 10.3022 23.0409 10.5782 23.317 10.9341C23.9106 11.8482 23.921 12.9848 23.9813 13.8739C24.0062 14.2975 24.0062 16.703 23.9813 17.1266C23.8875 18.5317 23.8121 19.0288 23.599 19.5443C23.4672 19.8697 23.3547 20.0414 23.1599 20.2317C22.8545 20.5246 22.4652 20.7194 22.0438 20.7901C19.4069 20.9842 17.1678 21.0263 14.6265 20.9865ZM18.6645 15.3406C17.1975 14.5733 15.7928 13.8617 14.357 13.1252V17.5316C15.8679 16.7277 17.4608 15.9911 18.6707 15.3345L18.6645 15.3406Z" fill="white"/>
</g>
<defs>
<clipPath id="clip0">
<rect width="16" height="11" fill="white" transform="translate(8 10)"/>
</clipPath>
</defs>
</svg>
